<mxfile host="app.diagrams.net" modified="2020-10-06T11:14:34.946Z" agent="5.0 (Windows NT 10.0; Win64; x64) AppleWebKit/537.36 (KHTML, like Gecko) Chrome/85.0.4183.121 Safari/537.36" etag="kbwVyB7kXMbMR7CbYJH9" version="13.7.7" type="github" pages="2">
  <diagram id="GEZqEkZr6rfZVl0Y4FOV" name="Page-2">
    <mxGraphModel dx="1718" dy="635" grid="1" gridSize="10" guides="1" tooltips="1" connect="1" arrows="1" fold="1" page="1" pageScale="1" pageWidth="1654" pageHeight="1169" background="#F1FAEE" math="0" shadow="0">
      <root>
        <mxCell id="LZfObeE4gQj3Y0a-kRSf-0" />
        <mxCell id="LZfObeE4gQj3Y0a-kRSf-1" parent="LZfObeE4gQj3Y0a-kRSf-0" />
        <mxCell id="LZfObeE4gQj3Y0a-kRSf-2" value="upload.component.ts" style="shape=umlLifeline;perimeter=lifelinePerimeter;whiteSpace=wrap;html=1;container=1;collapsible=0;recursiveResize=0;outlineConnect=0;align=center;fillColor=#A8DADC;strokeColor=#457B9D;fontColor=#1D3557;" parent="LZfObeE4gQj3Y0a-kRSf-1" vertex="1">
          <mxGeometry x="230" y="70" width="130" height="290" as="geometry" />
        </mxCell>
        <mxCell id="D1sD_tQybp781srm5Wco-1" value="" style="html=1;points=[];perimeter=orthogonalPerimeter;align=center;fillColor=#A8DADC;strokeColor=#457B9D;fontColor=#1D3557;" parent="LZfObeE4gQj3Y0a-kRSf-2" vertex="1">
          <mxGeometry x="60" y="90" width="10" height="130" as="geometry" />
        </mxCell>
        <mxCell id="LZfObeE4gQj3Y0a-kRSf-3" value="upload.service.ts" style="shape=umlLifeline;perimeter=lifelinePerimeter;whiteSpace=wrap;html=1;container=1;collapsible=0;recursiveResize=0;outlineConnect=0;align=center;fillColor=#A8DADC;strokeColor=#457B9D;fontColor=#1D3557;" parent="LZfObeE4gQj3Y0a-kRSf-1" vertex="1">
          <mxGeometry x="410" y="70" width="100" height="290" as="geometry" />
        </mxCell>
        <mxCell id="LZfObeE4gQj3Y0a-kRSf-6" value="" style="html=1;points=[];perimeter=orthogonalPerimeter;align=center;fillColor=#A8DADC;strokeColor=#457B9D;fontColor=#1D3557;" parent="LZfObeE4gQj3Y0a-kRSf-3" vertex="1">
          <mxGeometry x="45" y="110" width="10" height="80" as="geometry" />
        </mxCell>
        <mxCell id="LZfObeE4gQj3Y0a-kRSf-7" value="&lt;b&gt;newUpload&lt;/b&gt;(formData)" style="html=1;verticalAlign=bottom;endArrow=block;entryX=0.5;entryY=0.125;entryDx=0;entryDy=0;entryPerimeter=0;strokeColor=#457B9D;fontColor=#1D3557;labelBackgroundColor=#F1FAEE;" parent="LZfObeE4gQj3Y0a-kRSf-1" target="LZfObeE4gQj3Y0a-kRSf-6" edge="1">
          <mxGeometry relative="1" as="geometry">
            <mxPoint x="302" y="190" as="sourcePoint" />
            <mxPoint x="470" y="190" as="targetPoint" />
          </mxGeometry>
        </mxCell>
        <mxCell id="LZfObeE4gQj3Y0a-kRSf-8" value="verwerkte JSON" style="html=1;verticalAlign=bottom;endArrow=open;dashed=1;endSize=8;exitX=-0.176;exitY=0.707;exitDx=0;exitDy=0;exitPerimeter=0;entryX=0.99;entryY=0.589;entryDx=0;entryDy=0;entryPerimeter=0;strokeColor=#457B9D;fontColor=#1D3557;labelBackgroundColor=#F1FAEE;" parent="LZfObeE4gQj3Y0a-kRSf-1" source="LZfObeE4gQj3Y0a-kRSf-6" target="D1sD_tQybp781srm5Wco-1" edge="1">
          <mxGeometry x="0.0192" relative="1" as="geometry">
            <mxPoint x="480" y="337" as="targetPoint" />
            <mxPoint x="470" y="256" as="sourcePoint" />
            <mxPoint as="offset" />
          </mxGeometry>
        </mxCell>
        <mxCell id="D1sD_tQybp781srm5Wco-0" value="upload.component.html" style="shape=umlLifeline;perimeter=lifelinePerimeter;whiteSpace=wrap;html=1;container=1;collapsible=0;recursiveResize=0;outlineConnect=0;align=center;fillColor=#A8DADC;strokeColor=#457B9D;fontColor=#1D3557;" parent="LZfObeE4gQj3Y0a-kRSf-1" vertex="1">
          <mxGeometry x="10" y="70" width="140" height="290" as="geometry" />
        </mxCell>
        <mxCell id="D1sD_tQybp781srm5Wco-2" value="&lt;b&gt;uploadFile&lt;/b&gt;(het geselecteerde bestand)" style="html=1;verticalAlign=bottom;endArrow=block;entryX=0.5;entryY=0.144;entryDx=0;entryDy=0;entryPerimeter=0;strokeColor=#457B9D;fontColor=#1D3557;labelBackgroundColor=#F1FAEE;" parent="LZfObeE4gQj3Y0a-kRSf-1" source="D1sD_tQybp781srm5Wco-0" target="D1sD_tQybp781srm5Wco-1" edge="1">
          <mxGeometry x="0.0251" relative="1" as="geometry">
            <mxPoint x="294.5" y="180" as="sourcePoint" />
            <mxPoint x="280" y="180" as="targetPoint" />
            <mxPoint as="offset" />
          </mxGeometry>
        </mxCell>
        <mxCell id="D6Ybvf_pEwjHaY-mZILR-0" value="app.component.html&lt;br&gt;" style="shape=umlLifeline;perimeter=lifelinePerimeter;whiteSpace=wrap;html=1;container=1;collapsible=0;recursiveResize=0;outlineConnect=0;align=center;fillColor=#A8DADC;strokeColor=#457B9D;fontColor=#1D3557;" parent="LZfObeE4gQj3Y0a-kRSf-1" vertex="1">
          <mxGeometry x="560" y="70" width="150" height="370" as="geometry" />
        </mxCell>
        <mxCell id="4e76xopjhmTzKDxqxU_I-0" value="" style="html=1;points=[];perimeter=orthogonalPerimeter;fillColor=#A8DADC;strokeColor=#457B9D;fontColor=#1D3557;" parent="D6Ybvf_pEwjHaY-mZILR-0" vertex="1">
          <mxGeometry x="70" y="60" width="10" height="283" as="geometry" />
        </mxCell>
        <mxCell id="ptuAnSc_HrJPiwl29Hce-2" value="customer.component.ts" style="shape=umlLifeline;perimeter=lifelinePerimeter;whiteSpace=wrap;html=1;container=1;collapsible=0;recursiveResize=0;outlineConnect=0;align=center;fillColor=#A8DADC;strokeColor=#457B9D;fontColor=#1D3557;" parent="LZfObeE4gQj3Y0a-kRSf-1" vertex="1">
          <mxGeometry x="1220" y="325" width="140" height="70" as="geometry" />
        </mxCell>
        <mxCell id="ptuAnSc_HrJPiwl29Hce-3" value="order.component.ts" style="shape=umlLifeline;perimeter=lifelinePerimeter;whiteSpace=wrap;html=1;container=1;collapsible=0;recursiveResize=0;outlineConnect=0;align=center;fillColor=#A8DADC;strokeColor=#457B9D;fontColor=#1D3557;" parent="LZfObeE4gQj3Y0a-kRSf-1" vertex="1">
          <mxGeometry x="1220" y="400" width="140" height="70" as="geometry" />
        </mxCell>
        <mxCell id="ptuAnSc_HrJPiwl29Hce-4" value="merchant.component.ts" style="shape=umlLifeline;perimeter=lifelinePerimeter;whiteSpace=wrap;html=1;container=1;collapsible=0;recursiveResize=0;outlineConnect=0;align=center;size=40;fillColor=#A8DADC;strokeColor=#457B9D;fontColor=#1D3557;" parent="LZfObeE4gQj3Y0a-kRSf-1" vertex="1">
          <mxGeometry x="1220" y="480" width="140" height="70" as="geometry" />
        </mxCell>
        <mxCell id="ptuAnSc_HrJPiwl29Hce-5" value="invoice.component.ts" style="shape=umlLifeline;perimeter=lifelinePerimeter;whiteSpace=wrap;html=1;container=1;collapsible=0;recursiveResize=0;outlineConnect=0;align=center;fillColor=#A8DADC;strokeColor=#457B9D;fontColor=#1D3557;" parent="LZfObeE4gQj3Y0a-kRSf-1" vertex="1">
          <mxGeometry x="890" y="70" width="120" height="490" as="geometry" />
        </mxCell>
        <mxCell id="ptuAnSc_HrJPiwl29Hce-1" value="" style="html=1;points=[];perimeter=orthogonalPerimeter;align=center;fillColor=#A8DADC;strokeColor=#457B9D;fontColor=#1D3557;" parent="ptuAnSc_HrJPiwl29Hce-5" vertex="1">
          <mxGeometry x="55" y="290" width="10" height="140" as="geometry" />
        </mxCell>
        <mxCell id="Y5b7K0vC37cMInZ7jH2g-0" value="app.component.ts" style="shape=umlLifeline;perimeter=lifelinePerimeter;whiteSpace=wrap;html=1;container=1;collapsible=0;recursiveResize=0;outlineConnect=0;align=center;fillColor=#A8DADC;strokeColor=#457B9D;fontColor=#1D3557;" parent="LZfObeE4gQj3Y0a-kRSf-1" vertex="1">
          <mxGeometry x="750" y="70" width="110" height="370" as="geometry" />
        </mxCell>
        <mxCell id="-a0lSaLVY16L-QmpVP8A-0" value="" style="html=1;points=[];perimeter=orthogonalPerimeter;fillColor=#A8DADC;strokeColor=#457B9D;fontColor=#1D3557;" parent="Y5b7K0vC37cMInZ7jH2g-0" vertex="1">
          <mxGeometry x="50" y="60" width="10" height="280" as="geometry" />
        </mxCell>
        <mxCell id="ptuAnSc_HrJPiwl29Hce-0" value="(&lt;font color=&quot;#4c0099&quot;&gt;uploaded&lt;/font&gt;)=&quot;select($event)&quot;" style="html=1;verticalAlign=bottom;endArrow=block;strokeColor=#457B9D;fontColor=#1D3557;exitX=1.145;exitY=0.57;exitDx=0;exitDy=0;exitPerimeter=0;labelBackgroundColor=#F1FAEE;" parent="LZfObeE4gQj3Y0a-kRSf-1" source="4e76xopjhmTzKDxqxU_I-0" target="Y5b7K0vC37cMInZ7jH2g-0" edge="1">
          <mxGeometry x="-0.0292" width="80" relative="1" as="geometry">
            <mxPoint x="641" y="220" as="sourcePoint" />
            <mxPoint x="730" y="290" as="targetPoint" />
            <mxPoint as="offset" />
          </mxGeometry>
        </mxCell>
        <mxCell id="Y5b7K0vC37cMInZ7jH2g-1" value="[customer]=&lt;font color=&quot;#99004d&quot;&gt;customer&lt;/font&gt;" style="html=1;verticalAlign=bottom;endArrow=block;entryX=0.5;entryY=0.857;entryDx=0;entryDy=0;entryPerimeter=0;strokeColor=#457B9D;fontColor=#1D3557;labelBackgroundColor=#F1FAEE;" parent="LZfObeE4gQj3Y0a-kRSf-1" target="ptuAnSc_HrJPiwl29Hce-2" edge="1">
          <mxGeometry x="-0.1111" width="80" relative="1" as="geometry">
            <mxPoint x="1115" y="385" as="sourcePoint" />
            <mxPoint x="1040" y="180" as="targetPoint" />
            <mxPoint as="offset" />
          </mxGeometry>
        </mxCell>
        <mxCell id="Y5b7K0vC37cMInZ7jH2g-2" value="[order]=&lt;font color=&quot;#000099&quot;&gt;order&lt;/font&gt;" style="html=1;verticalAlign=bottom;endArrow=block;entryX=0.5;entryY=0.857;entryDx=0;entryDy=0;entryPerimeter=0;strokeColor=#457B9D;fontColor=#1D3557;labelBackgroundColor=#F1FAEE;" parent="LZfObeE4gQj3Y0a-kRSf-1" source="rymcl6mmym-CYYV5jCkK-6" target="ptuAnSc_HrJPiwl29Hce-3" edge="1">
          <mxGeometry x="-0.196" width="80" relative="1" as="geometry">
            <mxPoint x="1110" y="430" as="sourcePoint" />
            <mxPoint x="1040" y="260" as="targetPoint" />
            <mxPoint as="offset" />
          </mxGeometry>
        </mxCell>
        <mxCell id="Y5b7K0vC37cMInZ7jH2g-4" value="[merchant]=&lt;font color=&quot;#cc6600&quot;&gt;merchant&lt;/font&gt;" style="html=1;verticalAlign=bottom;endArrow=block;strokeColor=#457B9D;fontColor=#1D3557;labelBackgroundColor=#F1FAEE;exitX=1.157;exitY=0.947;exitDx=0;exitDy=0;exitPerimeter=0;" parent="LZfObeE4gQj3Y0a-kRSf-1" source="rymcl6mmym-CYYV5jCkK-6" target="ptuAnSc_HrJPiwl29Hce-4" edge="1">
          <mxGeometry x="-0.1667" width="80" relative="1" as="geometry">
            <mxPoint x="1130" y="480" as="sourcePoint" />
            <mxPoint x="1056" y="480" as="targetPoint" />
            <mxPoint as="offset" />
          </mxGeometry>
        </mxCell>
        <mxCell id="Tl9-PwWOdgIoWgfhJ0hh-0" value="&lt;font color=&quot;#006600&quot;&gt;invoice&lt;/font&gt;: InvoiceResponse" style="html=1;verticalAlign=bottom;endArrow=open;dashed=1;endSize=8;strokeColor=#457B9D;fontColor=#1D3557;labelBackgroundColor=#F1FAEE;" parent="LZfObeE4gQj3Y0a-kRSf-1" edge="1">
          <mxGeometry relative="1" as="geometry">
            <mxPoint x="640" y="338" as="targetPoint" />
            <mxPoint x="790" y="338" as="sourcePoint" />
          </mxGeometry>
        </mxCell>
        <mxCell id="Tl9-PwWOdgIoWgfhJ0hh-1" value="[invoice]= &lt;font color=&quot;#006600&quot;&gt;invoice&lt;/font&gt;" style="html=1;verticalAlign=bottom;endArrow=block;strokeColor=#457B9D;fontColor=#1D3557;exitX=1.007;exitY=0.874;exitDx=0;exitDy=0;exitPerimeter=0;labelBackgroundColor=#F1FAEE;" parent="LZfObeE4gQj3Y0a-kRSf-1" source="4e76xopjhmTzKDxqxU_I-0" target="ptuAnSc_HrJPiwl29Hce-5" edge="1">
          <mxGeometry x="-0.1404" y="6" width="80" relative="1" as="geometry">
            <mxPoint x="640" y="180" as="sourcePoint" />
            <mxPoint x="940" y="180" as="targetPoint" />
            <Array as="points">
              <mxPoint x="770" y="377" />
            </Array>
            <mxPoint as="offset" />
          </mxGeometry>
        </mxCell>
        <mxCell id="Tl9-PwWOdgIoWgfhJ0hh-2" value="&lt;b&gt;&lt;font style=&quot;font-size: 13px&quot;&gt;Actie fase&lt;/font&gt;&lt;/b&gt;" style="text;html=1;strokeColor=none;fillColor=none;align=center;verticalAlign=middle;whiteSpace=wrap;rounded=0;fontColor=#1D3557;" parent="LZfObeE4gQj3Y0a-kRSf-1" vertex="1">
          <mxGeometry y="20" width="80" height="20" as="geometry" />
        </mxCell>
        <mxCell id="rymcl6mmym-CYYV5jCkK-0" value="" style="ellipse;shape=cloud;whiteSpace=wrap;html=1;rounded=0;sketch=0;strokeColor=#457B9D;fillColor=#A8DADC;fontColor=#1D3557;" parent="LZfObeE4gQj3Y0a-kRSf-1" vertex="1">
          <mxGeometry x="480" y="120" width="80" height="60" as="geometry" />
        </mxCell>
        <mxCell id="rymcl6mmym-CYYV5jCkK-1" value="API" style="text;html=1;strokeColor=none;fillColor=none;align=center;verticalAlign=middle;whiteSpace=wrap;rounded=0;sketch=0;fontColor=#1D3557;" parent="LZfObeE4gQj3Y0a-kRSf-1" vertex="1">
          <mxGeometry x="500" y="140" width="40" height="20" as="geometry" />
        </mxCell>
        <mxCell id="rymcl6mmym-CYYV5jCkK-2" value="request" style="html=1;verticalAlign=bottom;endArrow=block;strokeColor=#457B9D;fillColor=#A8DADC;fontColor=#1D3557;entryX=0.31;entryY=0.8;entryDx=0;entryDy=0;entryPerimeter=0;labelBackgroundColor=#F1FAEE;" parent="LZfObeE4gQj3Y0a-kRSf-1" target="rymcl6mmym-CYYV5jCkK-0" edge="1" source="LZfObeE4gQj3Y0a-kRSf-6">
          <mxGeometry width="80" relative="1" as="geometry">
            <mxPoint x="480" y="210" as="sourcePoint" />
            <mxPoint x="550" y="210" as="targetPoint" />
            <Array as="points">
              <mxPoint x="505" y="210" />
            </Array>
          </mxGeometry>
        </mxCell>
        <mxCell id="rymcl6mmym-CYYV5jCkK-3" value="response" style="html=1;verticalAlign=bottom;endArrow=open;dashed=1;endSize=8;entryX=1.024;entryY=0.615;entryDx=0;entryDy=0;entryPerimeter=0;strokeColor=#457B9D;fontColor=#1D3557;exitX=0.734;exitY=0.923;exitDx=0;exitDy=0;exitPerimeter=0;labelBackgroundColor=#F1FAEE;" parent="LZfObeE4gQj3Y0a-kRSf-1" source="rymcl6mmym-CYYV5jCkK-0" target="LZfObeE4gQj3Y0a-kRSf-6" edge="1">
          <mxGeometry x="0.0192" relative="1" as="geometry">
            <mxPoint x="490.0000000000001" y="219.67000000000004" as="targetPoint" />
            <mxPoint x="653.34" y="219.66000000000005" as="sourcePoint" />
            <mxPoint as="offset" />
            <Array as="points">
              <mxPoint x="539" y="229" />
            </Array>
          </mxGeometry>
        </mxCell>
        <mxCell id="rymcl6mmym-CYYV5jCkK-4" value="invoice.component.html" style="shape=umlLifeline;perimeter=lifelinePerimeter;whiteSpace=wrap;html=1;container=1;collapsible=0;recursiveResize=0;outlineConnect=0;rounded=0;sketch=0;strokeColor=#457B9D;fillColor=#A8DADC;fontColor=#1D3557;" parent="LZfObeE4gQj3Y0a-kRSf-1" vertex="1">
          <mxGeometry x="1040" y="70" width="360" height="490" as="geometry" />
        </mxCell>
        <mxCell id="ihReDrS7iVibsjwpeXFY-0" value="show invoice" style="shape=umlFrame;whiteSpace=wrap;html=1;rounded=0;sketch=0;strokeColor=#457B9D;fillColor=#A8DADC;fontColor=#1D3557;width=140;height=30;" parent="rymcl6mmym-CYYV5jCkK-4" vertex="1">
          <mxGeometry x="-160" y="-60" width="520" height="550" as="geometry" />
        </mxCell>
        <mxCell id="rymcl6mmym-CYYV5jCkK-6" value="" style="html=1;points=[];perimeter=orthogonalPerimeter;rounded=0;sketch=0;strokeColor=#457B9D;fillColor=#A8DADC;fontColor=#1D3557;" parent="LZfObeE4gQj3Y0a-kRSf-1" vertex="1">
          <mxGeometry x="1105" y="360" width="10" height="190" as="geometry" />
        </mxCell>
        <mxCell id="rymcl6mmym-CYYV5jCkK-7" value="&lt;font color=&quot;#99004d&quot;&gt;customer&lt;/font&gt;: Customer" style="html=1;verticalAlign=bottom;endArrow=block;strokeColor=#457B9D;fontColor=#1D3557;exitX=0.967;exitY=0.29;exitDx=0;exitDy=0;exitPerimeter=0;labelBackgroundColor=#F1FAEE;" parent="LZfObeE4gQj3Y0a-kRSf-1" edge="1" source="ptuAnSc_HrJPiwl29Hce-1">
          <mxGeometry x="-0.0292" width="80" relative="1" as="geometry">
            <mxPoint x="960" y="400.0000000000001" as="sourcePoint" />
            <mxPoint x="1110" y="400" as="targetPoint" />
            <mxPoint as="offset" />
          </mxGeometry>
        </mxCell>
        <mxCell id="M6nOHMkFNcMZ5WzRITVF-6" value="&lt;font color=&quot;#4c0099&quot;&gt;uploaded&lt;/font&gt;.emit(data)" style="html=1;verticalAlign=bottom;endArrow=block;strokeColor=#457B9D;fontColor=#1D3557;exitX=1.033;exitY=0.923;exitDx=0;exitDy=0;exitPerimeter=0;labelBackgroundColor=#F1FAEE;" edge="1" parent="LZfObeE4gQj3Y0a-kRSf-1" source="D1sD_tQybp781srm5Wco-1">
          <mxGeometry x="-0.106" width="80" relative="1" as="geometry">
            <mxPoint x="319.99999999999994" y="280.342" as="sourcePoint" />
            <mxPoint x="635" y="280" as="targetPoint" />
            <Array as="points">
              <mxPoint x="449.93" y="280" />
            </Array>
            <mxPoint as="offset" />
          </mxGeometry>
        </mxCell>
        <mxCell id="M6nOHMkFNcMZ5WzRITVF-7" value="&lt;font color=&quot;#000099&quot;&gt;order&lt;/font&gt;: Order" style="html=1;verticalAlign=bottom;endArrow=block;strokeColor=#457B9D;fontColor=#1D3557;exitX=0.967;exitY=0.576;exitDx=0;exitDy=0;exitPerimeter=0;labelBackgroundColor=#F1FAEE;" edge="1" parent="LZfObeE4gQj3Y0a-kRSf-1" source="ptuAnSc_HrJPiwl29Hce-1">
          <mxGeometry x="-0.0292" width="80" relative="1" as="geometry">
            <mxPoint x="960" y="441" as="sourcePoint" />
            <mxPoint x="1110" y="441" as="targetPoint" />
            <mxPoint as="offset" />
          </mxGeometry>
        </mxCell>
        <mxCell id="M6nOHMkFNcMZ5WzRITVF-8" value="&lt;font color=&quot;#cc6600&quot;&gt;merchant&lt;/font&gt;: Merchant" style="html=1;verticalAlign=bottom;endArrow=block;strokeColor=#457B9D;fontColor=#1D3557;exitX=0.967;exitY=0.857;exitDx=0;exitDy=0;exitPerimeter=0;labelBackgroundColor=#F1FAEE;" edge="1" parent="LZfObeE4gQj3Y0a-kRSf-1" source="ptuAnSc_HrJPiwl29Hce-1">
          <mxGeometry x="-0.0292" width="80" relative="1" as="geometry">
            <mxPoint x="960" y="481" as="sourcePoint" />
            <mxPoint x="1110" y="481" as="targetPoint" />
            <mxPoint as="offset" />
          </mxGeometry>
        </mxCell>
      </root>
    </mxGraphModel>
  </diagram>
  <diagram id="qNVPv0w1eiPP5695cdRl" name="Page-3">
    <mxGraphModel dx="1178" dy="435" grid="1" gridSize="10" guides="1" tooltips="1" connect="1" arrows="1" fold="1" page="1" pageScale="1" pageWidth="1169" pageHeight="827" background="#F1FAEE" math="0" shadow="0">
      <root>
        <mxCell id="_MOsY3ofGQ7f26J8zmFv-0" />
        <mxCell id="_MOsY3ofGQ7f26J8zmFv-1" parent="_MOsY3ofGQ7f26J8zmFv-0" />
        <mxCell id="xb2h3Edyxn48SkZrhoG4-9" value="*ngIf = &quot;invoice&quot;" style="shape=umlFrame;whiteSpace=wrap;html=1;rounded=0;sketch=0;strokeColor=#457B9D;fillColor=#A8DADC;fontColor=#1D3557;width=100;height=20;" parent="_MOsY3ofGQ7f26J8zmFv-1" vertex="1">
          <mxGeometry x="410" y="160" width="400" height="190" as="geometry" />
        </mxCell>
        <mxCell id="_MOsY3ofGQ7f26J8zmFv-2" value="app.component.ts" style="shape=umlLifeline;perimeter=lifelinePerimeter;whiteSpace=wrap;html=1;container=1;collapsible=0;recursiveResize=0;outlineConnect=0;align=center;fillColor=#A8DADC;strokeColor=#457B9D;fontColor=#1D3557;" parent="_MOsY3ofGQ7f26J8zmFv-1" vertex="1">
          <mxGeometry x="250" y="70" width="130" height="300" as="geometry" />
        </mxCell>
        <mxCell id="_MOsY3ofGQ7f26J8zmFv-5" value="app.component.html" style="shape=umlLifeline;perimeter=lifelinePerimeter;whiteSpace=wrap;html=1;container=1;collapsible=0;recursiveResize=0;outlineConnect=0;align=center;fillColor=#A8DADC;strokeColor=#457B9D;fontColor=#1D3557;" parent="_MOsY3ofGQ7f26J8zmFv-1" vertex="1">
          <mxGeometry x="440" y="70" width="160" height="300" as="geometry" />
        </mxCell>
        <mxCell id="xb2h3Edyxn48SkZrhoG4-1" value="" style="html=1;points=[];perimeter=orthogonalPerimeter;rounded=0;sketch=0;strokeColor=#457B9D;fillColor=#A8DADC;fontColor=#1D3557;" parent="_MOsY3ofGQ7f26J8zmFv-5" vertex="1">
          <mxGeometry x="75" y="130" width="10" height="120" as="geometry" />
        </mxCell>
        <mxCell id="_MOsY3ofGQ7f26J8zmFv-9" value="index.html" style="shape=umlLifeline;perimeter=lifelinePerimeter;whiteSpace=wrap;html=1;container=1;collapsible=0;recursiveResize=0;outlineConnect=0;align=center;fillColor=#A8DADC;strokeColor=#457B9D;fontColor=#1D3557;" parent="_MOsY3ofGQ7f26J8zmFv-1" vertex="1">
          <mxGeometry x="20" y="70" width="160" height="300" as="geometry" />
        </mxCell>
        <mxCell id="_MOsY3ofGQ7f26J8zmFv-24" value="&lt;b&gt;&lt;font style=&quot;font-size: 13px&quot;&gt;Opstart fase&lt;/font&gt;&lt;/b&gt;" style="text;html=1;strokeColor=none;fillColor=none;align=center;verticalAlign=middle;whiteSpace=wrap;rounded=0;fontColor=#1D3557;" parent="_MOsY3ofGQ7f26J8zmFv-1" vertex="1">
          <mxGeometry x="10" y="20" width="80" height="20" as="geometry" />
        </mxCell>
        <mxCell id="gVPhM_jDJRCVUbOINNgm-0" value="ngOnInit" style="html=1;verticalAlign=bottom;endArrow=block;strokeColor=#457B9D;fillColor=#A8DADC;fontColor=#1D3557;labelBackgroundColor=#F1FAEE;" parent="_MOsY3ofGQ7f26J8zmFv-1" source="_MOsY3ofGQ7f26J8zmFv-2" target="_MOsY3ofGQ7f26J8zmFv-5" edge="1">
          <mxGeometry width="80" relative="1" as="geometry">
            <mxPoint x="330" y="240" as="sourcePoint" />
            <mxPoint x="390" y="240" as="targetPoint" />
          </mxGeometry>
        </mxCell>
        <mxCell id="xb2h3Edyxn48SkZrhoG4-0" value="" style="html=1;points=[];perimeter=orthogonalPerimeter;rounded=0;sketch=0;strokeColor=#457B9D;fillColor=#A8DADC;fontColor=#1D3557;" parent="_MOsY3ofGQ7f26J8zmFv-1" vertex="1">
          <mxGeometry x="310" y="160" width="10" height="80" as="geometry" />
        </mxCell>
        <mxCell id="xb2h3Edyxn48SkZrhoG4-7" value="New InvoiceComponent&lt;br&gt;via app-invoice" style="html=1;verticalAlign=bottom;endArrow=block;strokeColor=#457B9D;fillColor=#A8DADC;fontColor=#1D3557;labelBackgroundColor=#F1FAEE;exitX=0.9;exitY=0.275;exitDx=0;exitDy=0;exitPerimeter=0;entryX=-0.012;entryY=0.575;entryDx=0;entryDy=0;entryPerimeter=0;" parent="_MOsY3ofGQ7f26J8zmFv-1" edge="1" target="--OSEAoGZy6GmUeCQc5k-1" source="xb2h3Edyxn48SkZrhoG4-1">
          <mxGeometry x="0.0425" width="80" relative="1" as="geometry">
            <mxPoint x="500" y="240" as="sourcePoint" />
            <mxPoint x="639.69" y="239.9999999999999" as="targetPoint" />
            <mxPoint as="offset" />
          </mxGeometry>
        </mxCell>
        <mxCell id="xb2h3Edyxn48SkZrhoG4-10" value="" style="line;strokeWidth=2;fillColor=none;align=left;verticalAlign=middle;spacingTop=-1;spacingLeft=3;spacingRight=3;rotatable=0;labelPosition=right;points=[];portConstraint=eastwest;rounded=0;sketch=0;fontColor=#1D3557;strokeColor=#457B9D;labelBackgroundColor=#F1FAEE;" parent="_MOsY3ofGQ7f26J8zmFv-1" vertex="1">
          <mxGeometry x="410" y="262" width="400" height="8" as="geometry" />
        </mxCell>
        <mxCell id="xb2h3Edyxn48SkZrhoG4-14" value="&lt;i&gt;&lt;b&gt;invoice is falsy&lt;/b&gt;&lt;/i&gt;" style="text;html=1;strokeColor=none;fillColor=none;align=center;verticalAlign=middle;whiteSpace=wrap;rounded=0;sketch=0;fontColor=#1D3557;" parent="_MOsY3ofGQ7f26J8zmFv-1" vertex="1">
          <mxGeometry x="525" y="270" width="100" height="20" as="geometry" />
        </mxCell>
        <mxCell id="--OSEAoGZy6GmUeCQc5k-1" value="ref" style="shape=umlFrame;whiteSpace=wrap;html=1;rounded=0;sketch=0;strokeColor=#457B9D;fillColor=#A8DADC;fontColor=#1D3557;width=40;height=15;" parent="_MOsY3ofGQ7f26J8zmFv-1" vertex="1">
          <mxGeometry x="680" y="210" width="120" height="40" as="geometry" />
        </mxCell>
        <mxCell id="--OSEAoGZy6GmUeCQc5k-2" value="Show invoice" style="text;html=1;strokeColor=none;fillColor=none;align=center;verticalAlign=middle;whiteSpace=wrap;rounded=0;sketch=0;fontColor=#1D3557;" parent="_MOsY3ofGQ7f26J8zmFv-1" vertex="1">
          <mxGeometry x="710" y="220" width="80" height="20" as="geometry" />
        </mxCell>
        <mxCell id="agpp9xWBGYlAXAUw3pJZ-0" value="" style="ellipse;html=1;shape=endState;fillColor=#000000;strokeColor=#ff0000;rounded=0;sketch=0;fontColor=#1D3557;" parent="_MOsY3ofGQ7f26J8zmFv-1" vertex="1">
          <mxGeometry x="880" y="280" width="40" height="40" as="geometry" />
        </mxCell>
        <mxCell id="agpp9xWBGYlAXAUw3pJZ-1" value="" style="html=1;verticalAlign=bottom;endArrow=block;strokeColor=#457B9D;fillColor=#A8DADC;fontColor=#1D3557;entryX=0;entryY=0.5;entryDx=0;entryDy=0;exitX=0.967;exitY=0.842;exitDx=0;exitDy=0;exitPerimeter=0;" parent="_MOsY3ofGQ7f26J8zmFv-1" target="agpp9xWBGYlAXAUw3pJZ-0" edge="1" source="xb2h3Edyxn48SkZrhoG4-1">
          <mxGeometry width="80" relative="1" as="geometry">
            <mxPoint x="500" y="310" as="sourcePoint" />
            <mxPoint x="870" y="310" as="targetPoint" />
          </mxGeometry>
        </mxCell>
        <mxCell id="OQKUhkuFEgK2Fz-boYf8-0" value="New AppComponent via app-root" style="html=1;verticalAlign=bottom;endArrow=block;strokeColor=#457B9D;fillColor=#A8DADC;fontColor=#1D3557;labelBackgroundColor=#F1FAEE;" edge="1" parent="_MOsY3ofGQ7f26J8zmFv-1" source="_MOsY3ofGQ7f26J8zmFv-9">
          <mxGeometry width="80" relative="1" as="geometry">
            <mxPoint x="120.00034482758628" y="199.65999999999988" as="sourcePoint" />
            <mxPoint x="315" y="182" as="targetPoint" />
          </mxGeometry>
        </mxCell>
        <mxCell id="xb2h3Edyxn48SkZrhoG4-13" value="&lt;i&gt;&lt;b&gt;invoice is truthy&lt;/b&gt;&lt;/i&gt;" style="text;html=1;strokeColor=none;fillColor=none;align=center;verticalAlign=middle;whiteSpace=wrap;rounded=0;sketch=0;fontColor=#1D3557;" parent="_MOsY3ofGQ7f26J8zmFv-1" vertex="1">
          <mxGeometry x="525" y="160" width="100" height="20" as="geometry" />
        </mxCell>
      </root>
    </mxGraphModel>
  </diagram>
</mxfile>
